<?xml version="1.0" encoding="utf-8"?>
<!-- Generator: Adobe Illustrator 19.1.0, SVG Export Plug-In . SVG Version: 6.00 Build 0)  -->
<svg version="1.1" id="Ebene_1" xmlns="http://www.w3.org/2000/svg" xmlns:xlink="http://www.w3.org/1999/xlink" x="0px" y="0px"
	 viewBox="0 0 94.5 123" style="enable-background:new 0 0 94.5 123;" xml:space="preserve">
<style type="text/css">
	.st0{fill:#878787;}
	.st1{fill:#007F98;}
	.st2{fill:#E30613;}
	.st3{fill:#1E996C;}
</style>
<g>
	<path d="M8.5,118.8L7.9,120H3.8l6.7-15h1.2l6.7,15h-4.1l-0.5-1.2H8.5z M9.8,115.7h2.6l-1.3-3.4L9.8,115.7z"/>
	<path d="M32.3,113.7c0,3.9-2.8,6.5-6.5,6.5c-3.7,0-6.5-2.6-6.5-6.5v-8.5h3.8v8.8c0,1.7,1.1,2.7,2.7,2.7c1.6,0,2.7-1,2.7-2.7v-8.8
		h3.8V113.7z"/>
	<polygon points="50.2,120 46.3,120 46.3,113.8 43.3,117.4 42,117.4 39,113.8 39,120 35.2,120 35.2,105 36.4,105 42.7,112.6 
		48.9,105 50.2,105 	"/>
	<polygon points="56.9,108.7 56.9,110.8 61.5,110.8 61.5,114 56.9,114 56.9,116.5 63.6,116.5 63.6,120 53.1,120 53.1,105.3 
		63.3,105.3 63.3,108.7 	"/>
	<path d="M69.2,118.8l-0.5,1.2h-4.1l6.7-15h1.2l6.7,15H75l-0.5-1.2H69.2z M70.6,115.7h2.6l-1.3-3.4L70.6,115.7z"/>
	<path d="M90.4,108l-2.6,2c-0.7-1-1.3-1.6-2.4-1.6c-0.8,0-1.3,0.3-1.3,0.9c0,0.6,0.4,0.8,1.3,1.2l1.7,0.7c2.5,1,3.8,2.3,3.8,4.4
		c0,2.9-2.4,4.6-5.4,4.6c-2.7,0-4.8-1.3-5.9-3.3l2.6-2c0.7,1,1.6,1.9,3.3,1.9c1,0,1.5-0.4,1.5-1.1c0-0.7-0.5-0.9-1.5-1.4l-1.5-0.7
		c-2.3-1-3.7-2.4-3.7-4.4c0-2.6,2.2-4.4,5.2-4.4C88,105,89.6,106.3,90.4,108"/>
</g>
<path class="st0" d="M75.4,3.4L48.1,19.3l6.2,10.6c-2.1-0.1-3.5,0.2-4.8,1c-3,1.7-3.2,4.9-1.9,7.2c1.3,2.3,4.2,3.6,7.2,1.9
	c1.4-0.8,2.3-1.9,3.3-3.7l6.1,10.5l10.5-6.1c-1.9-1-3-1.9-3.7-3.3c-1.8-3-0.4-5.9,1.9-7.2c2.3-1.3,5.5-1.1,7.2,1.9
	c0.8,1.3,1.1,2.7,1,4.8l10.5-6.1L75.4,3.4z"/>
<path class="st1" d="M35.5,61.5H25.2c0.5,0.8,1,2,1,3.5c0,3.6-2.7,6.4-6.5,6.4c-3.7,0-6.5-2.9-6.5-6.4c0-1.5,0.5-2.7,1-3.5H3.8v31.6
	h31.7V81c1.8,1.1,3.1,1.6,4.7,1.6c3.5,0,5.3-2.7,5.3-5.3c0-2.6-1.8-5.3-5.3-5.3c-1.5,0-2.9,0.5-4.7,1.6V61.5z"/>
<path class="st2" d="M35.5,28.6H3.8v31.7H16c-1.1,1.8-1.6,3.1-1.6,4.7c0,3.5,2.7,5.3,5.3,5.3c2.6,0,5.3-1.8,5.3-5.3
	c0-1.5-0.5-2.9-1.6-4.7h12.1V48.1c-1.8,1.1-3.1,1.6-4.7,1.6c-3.5,0-5.3-2.7-5.3-5.3c0-2.6,1.8-5.3,5.3-5.3c1.5,0,2.9,0.5,4.7,1.6
	V28.6z"/>
<path class="st3" d="M52.6,51.6c-2.6,0-5.3,1.8-5.3,5.3c0,1.5,0.5,2.9,1.6,4.7H36.8v10.3c0.8-0.5,2-1,3.5-1c3.6,0,6.4,2.7,6.4,6.5
	c0,3.7-2.9,6.5-6.4,6.5c-1.5,0-2.7-0.5-3.5-1v10.3h31.7V61.5H56.3c1.1-1.8,1.6-3.1,1.6-4.7C57.9,53.4,55.2,51.6,52.6,51.6"/>
</svg>
