<?xml version="1.0" encoding="utf-8"?>
<!-- Generator: Adobe Illustrator 19.1.0, SVG Export Plug-In . SVG Version: 6.00 Build 0)  -->
<svg version="1.1" id="Ebene_1" xmlns="http://www.w3.org/2000/svg" xmlns:xlink="http://www.w3.org/1999/xlink" x="0px" y="0px"
	 viewBox="0 0 459 164.4" style="enable-background:new 0 0 459 164.4;" xml:space="preserve">
<style type="text/css">
	.st0{fill:#FFFFFF;}
	.st1{fill:#878787;}
	.st2{fill:#007F98;}
	.st3{fill:#E30613;}
	.st4{fill:#1E996C;}
</style>
<rect x="16.6" y="16.4" class="st0" width="442.4" height="137.6"/>
<path class="st1" d="M123.2,28.7L95,45.1l6.3,10.9c-2.2-0.1-3.6,0.2-5,1c-3.1,1.8-3.3,5.1-2,7.4c1.4,2.3,4.4,3.7,7.4,1.9
	c1.4-0.8,2.4-1.9,3.4-3.9l6.3,10.8l10.8-6.3c-1.9-1-3.1-2-3.9-3.4c-1.8-3.1-0.4-6.1,1.9-7.4c2.3-1.3,5.7-1.1,7.4,2
	c0.8,1.4,1.1,2.8,1,5l10.9-6.3L123.2,28.7z"/>
<path class="st2" d="M82,88.7H71.4c0.5,0.8,1,2,1,3.6c0,3.7-2.8,6.6-6.7,6.6C61.8,99,59,96,59,92.3c0-1.6,0.5-2.8,1-3.6H49.3v32.6
	H82v-12.5c1.8,1.1,3.2,1.6,4.8,1.6c3.6,0,5.4-2.8,5.4-5.4c0-2.7-1.9-5.4-5.4-5.4c-1.6,0-3,0.5-4.8,1.6V88.7z"/>
<path class="st3" d="M82,54.7H49.3v32.7h12.6c-1.1,1.8-1.6,3.2-1.6,4.8c0,3.6,2.8,5.4,5.4,5.4c2.7,0,5.4-1.9,5.4-5.4
	c0-1.6-0.5-3-1.6-4.8H82V74.8c-1.8,1.1-3.2,1.6-4.8,1.6c-3.6,0-5.4-2.8-5.4-5.4c0-2.7,1.9-5.4,5.4-5.4c1.6,0,3,0.5,4.8,1.6V54.7z"/>
<path class="st4" d="M99.7,78.5c-2.7,0-5.4,1.9-5.4,5.4c0,1.6,0.5,3,1.6,4.8H83.3v10.7c0.9-0.5,2-1,3.6-1c3.7,0,6.6,2.8,6.6,6.7
	c0,3.9-2.9,6.7-6.6,6.7c-1.6,0-2.8-0.5-3.6-1v10.7H116V88.7h-12.6c1.1-1.8,1.6-3.2,1.6-4.8C105.1,80.3,102.3,78.5,99.7,78.5"/>
<g>
	<path d="M159,118.7l-1.2,2.7h-9l14.6-32.6h2.7l14.6,32.6h-9l-1.2-2.7H159z M161.9,112h5.6l-2.8-7.4L161.9,112z"/>
	<path d="M210.9,107.8c0,8.6-6.1,14.2-14.2,14.2c-8.2,0-14.2-5.6-14.2-14.2V89.3h8.3v19.1c0,3.7,2.4,5.9,5.8,5.9
		c3.4,0,5.8-2.2,5.8-5.9V89.3h8.4V107.8z"/>
	<polygon points="249.7,121.4 241.3,121.4 241.3,107.9 234.7,115.7 232,115.7 225.4,107.9 225.4,121.4 217.1,121.4 217.1,88.7 
		219.7,88.7 233.4,105.4 247,88.7 249.7,88.7 	"/>
	<polygon points="264.4,96.8 264.4,101.3 274.4,101.3 274.4,108.2 264.4,108.2 264.4,113.8 278.9,113.8 278.9,121.4 256.1,121.4 
		256.1,89.3 278.3,89.3 278.3,96.8 	"/>
	<path d="M291.1,118.7l-1.2,2.7h-9l14.6-32.6h2.7l14.6,32.6h-9l-1.2-2.7H291.1z M294.1,112h5.6l-2.8-7.4L294.1,112z"/>
	<path d="M337.4,95.2l-5.6,4.3c-1.5-2.1-2.9-3.4-5.3-3.4c-1.7,0-2.9,0.6-2.9,2c0,1.2,0.8,1.8,2.8,2.6l3.7,1.6c5.3,2.2,8.2,5,8.2,9.7
		c0,6.3-5.1,10-11.7,10c-5.9,0-10.5-2.9-12.8-7.2l5.6-4.3c1.6,2.1,3.5,4.1,7.1,4.1c2.2,0,3.3-0.8,3.3-2.3c0-1.5-1-2-3.3-3l-3.3-1.5
		c-5.1-2.2-8.1-5.1-8.1-9.7c0-5.7,4.7-9.5,11.2-9.5C332,88.7,335.5,91.5,337.4,95.2"/>
</g>
</svg>
