<?xml version="1.0" encoding="utf-8"?>
<!-- Generator: Adobe Illustrator 19.1.0, SVG Export Plug-In . SVG Version: 6.00 Build 0)  -->
<svg version="1.1" id="Ebene_1" xmlns="http://www.w3.org/2000/svg" xmlns:xlink="http://www.w3.org/1999/xlink" x="0px" y="0px"
	 viewBox="0 0 510.2 575.2" style="enable-background:new 0 0 510.2 575.2;" xml:space="preserve">
<style type="text/css">
	.st0{clip-path:url(#SVGID_2_);fill:#878787;}
	.st1{clip-path:url(#SVGID_2_);fill:#007F98;}
	.st2{clip-path:url(#SVGID_2_);fill:#E30613;}
	.st3{clip-path:url(#SVGID_2_);fill:#1E996C;}
</style>
<g>
	<path d="M110.8,432.4l-1.4,3.3h-11l17.8-39.9h3.3l17.8,39.9h-11l-1.4-3.3H110.8z M114.4,424.2h6.8l-3.4-9.1L114.4,424.2z"/>
	<path d="M174.2,419.1c0,10.5-7.4,17.3-17.3,17.3c-10,0-17.3-6.8-17.3-17.3v-22.6h10.2v23.3c0,4.5,3,7.2,7.1,7.2
		c4.2,0,7.1-2.7,7.1-7.2v-23.3h10.2V419.1z"/>
	<path d="M221.7,435.7h-10.2v-16.4l-8.1,9.5h-3.3l-8.1-9.4v16.4h-10.2v-39.9h3.3l16.7,20.4l16.7-20.4h3.3V435.7z"/>
	<path d="M239.7,405.7v5.4h12.1v8.5h-12.1v6.8h17.7v9.2h-27.9v-39.2h27.2v9.2H239.7z"/>
	<path d="M272.4,432.4l-1.4,3.3h-11l17.8-39.9h3.3l17.8,39.9h-11l-1.4-3.3H272.4z M276,424.2h6.8l-3.4-9.1L276,424.2z"/>
	<path d="M328.9,403.7l-6.8,5.2c-1.8-2.6-3.5-4.2-6.5-4.2c-2,0-3.5,0.7-3.5,2.5c0,1.5,0.9,2.2,3.4,3.2l4.5,1.9
		c6.5,2.7,10,6.1,10,11.8c0,7.7-6.3,12.2-14.4,12.2c-7.2,0-12.8-3.5-15.6-8.8l6.9-5.2c1.9,2.6,4.3,5,8.7,5c2.7,0,4-0.9,4-2.8
		c0-1.8-1.2-2.4-4-3.6l-4-1.8c-6.2-2.7-9.9-6.3-9.9-11.8c0-7,5.8-11.6,13.7-11.6C322.3,395.8,326.6,399.2,328.9,403.7z"/>
</g>
<g>
	<path d="M108.6,455.4v19.3H106v-19.3h-7.6V453h17.8v2.4H108.6z"/>
	<path d="M131.2,467.5h-12.6c0.4,3.2,2.7,5.2,5.8,5.2c2,0,3.5-0.8,4.9-2.1l1.5,1.8c-1.6,1.7-3.8,2.8-6.4,2.8c-4.8,0-8.5-3.6-8.5-8.3
		c0-4.7,3.6-8.4,8.2-8.4c4.1,0,7.3,3,7.3,7.2C131.4,466.4,131.2,467.2,131.2,467.5z M118.7,465.2h10c0-2.9-2.2-4.5-4.7-4.5
		C121.3,460.7,119.2,462.5,118.7,465.2z"/>
	<path d="M139,452.6c0,1.1-0.9,1.9-1.9,1.9c-1.1,0-1.9-0.8-1.9-1.9c0-1.1,0.9-1.9,1.9-1.9C138.1,450.7,139,451.5,139,452.6z
		 M135.8,474.7v-16h2.6v16H135.8z"/>
	<path d="M143.9,474.7V450h2.6v24.7H143.9z"/>
	<path d="M161.4,474.7V453h2.6v21.7H161.4z"/>
	<path d="M183.1,464.6v10.1h-2.6V465c0-2.5-1.5-4.2-3.9-4.2c-2.4,0-4.2,1.8-4.2,4.2v9.7h-2.6V450h2.6v10.4c1.1-1.3,2.7-2.1,4.8-2.1
		C180.9,458.3,183.1,460.9,183.1,464.6z"/>
	<path d="M197,458.7v2.3h-1c-2.6,0-5,1.6-5,4.7v9h-2.6v-16h2.4v2.2c1.2-1.5,3.1-2.4,5-2.4C196.3,458.5,196.6,458.6,197,458.7z"/>
	<path d="M214.2,467.5h-12.6c0.4,3.2,2.7,5.2,5.8,5.2c2,0,3.5-0.8,4.9-2.1l1.5,1.8c-1.6,1.7-3.8,2.8-6.4,2.8c-4.8,0-8.5-3.6-8.5-8.3
		c0-4.7,3.6-8.4,8.2-8.4c4.1,0,7.3,3,7.3,7.2C214.4,466.4,214.3,467.2,214.2,467.5z M201.7,465.2h10c0-2.9-2.2-4.5-4.7-4.5
		C204.3,460.7,202.3,462.5,201.7,465.2z"/>
	<path d="M227.4,458.7v2.3h-1c-2.6,0-5,1.6-5,4.7v9h-2.6v-16h2.4v2.2c1.2-1.5,3.1-2.4,5-2.4C226.7,458.5,227.1,458.6,227.4,458.7z"
		/>
	<path d="M258.9,457.1l-2,1.5c-1.6-2.2-3.9-3.5-6.9-3.5c-5,0-8.5,3.8-8.5,8.7c0,5,3.6,8.9,8.7,8.9c3.3,0,5.8-1.6,7.2-3.8V466H250
		v-2.4h10v5.8c-1.9,3.4-5.6,5.6-9.9,5.6c-6.3,0-11.3-4.9-11.3-11.2c0-6.3,5-11.2,11.3-11.2C253.7,452.6,256.9,454.3,258.9,457.1z"/>
	<path d="M278.6,467.5H266c0.4,3.2,2.7,5.2,5.8,5.2c2,0,3.5-0.8,4.9-2.1l1.5,1.8c-1.6,1.7-3.8,2.8-6.4,2.8c-4.8,0-8.5-3.6-8.5-8.3
		c0-4.7,3.6-8.4,8.2-8.4c4.1,0,7.3,3,7.3,7.2C278.8,466.4,278.7,467.2,278.6,467.5z M266.1,465.2h10c0-2.9-2.2-4.5-4.7-4.5
		C268.8,460.7,266.7,462.5,266.1,465.2z"/>
	<path d="M293.4,460.8l-1.6,1.6c-1-1.1-2.4-1.7-3.9-1.7c-1.5,0-2.6,0.7-2.6,1.9c0,1.1,0.8,1.6,2.6,2.3l1.5,0.6
		c2.9,1.2,4.3,2.5,4.3,4.7c0,3.2-2.7,4.7-5.7,4.7c-2.8,0-5-1.4-6.3-3.1l1.7-1.7c1.3,1.3,2.6,2.4,4.6,2.4c1.6,0,3-0.8,3-2.2
		c0-1.3-1.2-1.8-2.8-2.5l-1.6-0.7c-2.4-1-4-2.2-4-4.5c0-2.9,2.5-4.5,5.4-4.5C290.4,458.3,292.2,459.3,293.4,460.8z"/>
	<path d="M311.3,468.3c0,4.1-2.9,6.8-6.6,6.8c-3.7,0-6.7-2.6-6.7-6.8v-9.6h2.6v9.8c0,2.6,1.8,4.2,4.1,4.2c2.2,0,4-1.6,4-4.2v-9.8
		h2.6V468.3z"/>
	<path d="M329.9,464.6v10.1h-2.6v-9.8c0-2.5-1.5-4.2-3.9-4.2c-2.4,0-4.2,1.8-4.2,4.2v9.8h-2.6v-16h2.4v1.7c1.2-1.3,2.9-2.1,4.9-2.1
		C327.7,458.3,329.9,460.9,329.9,464.6z"/>
	<path d="M350.5,474.7H348v-2.5c-1.2,1.8-3.5,2.9-6,2.9c-4.6,0-7.9-3.6-7.9-8.3c0-4.7,3.4-8.4,7.9-8.4c2.4,0,4.6,1,5.9,2.7V450h2.6
		V474.7z M347.9,466.7c0-4.2-2.8-6-5.5-6c-3.2,0-5.6,2.5-5.6,5.9c0,3.5,2.4,6,5.6,6C345.1,472.6,347.9,470.9,347.9,466.7z"/>
	<path d="M369.3,464.6v10.1h-2.6V465c0-2.5-1.5-4.2-3.9-4.2c-2.4,0-4.2,1.8-4.2,4.2v9.7H356V450h2.6v10.4c1.1-1.3,2.7-2.1,4.8-2.1
		C367.1,458.3,369.3,460.9,369.3,464.6z"/>
	<path d="M388.8,467.5h-12.6c0.4,3.2,2.7,5.2,5.8,5.2c2,0,3.5-0.8,4.9-2.1l1.5,1.8c-1.6,1.7-3.8,2.8-6.4,2.8c-4.8,0-8.5-3.6-8.5-8.3
		c0-4.7,3.6-8.4,8.2-8.4c4.1,0,7.3,3,7.3,7.2C389,466.4,388.9,467.2,388.8,467.5z M376.3,465.2h10c0-2.9-2.2-4.5-4.7-4.5
		C378.9,460.7,376.9,462.5,376.3,465.2z"/>
	<path d="M396.6,452.6c0,1.1-0.9,1.9-1.9,1.9c-1.1,0-1.9-0.8-1.9-1.9c0-1.1,0.9-1.9,1.9-1.9C395.8,450.7,396.6,451.5,396.6,452.6z
		 M393.4,474.7v-16h2.6v16H393.4z"/>
	<path d="M410.3,472.5v2.2c-0.8,0.2-1.6,0.4-2.7,0.4c-3.2,0-5.4-1.5-5.4-5.2V461h-2.7v-2.3h2.7v-4.4h2.6v4.4h5v2.3h-5v8.7
		c0,2.4,1.3,3,3.4,3C408.8,472.7,409.5,472.6,410.3,472.5z"/>
</g>
<g>
	<defs>
		<rect id="SVGID_1_" width="510.2" height="575.2"/>
	</defs>
	<clipPath id="SVGID_2_">
		<use xlink:href="#SVGID_1_"  style="overflow:visible;"/>
	</clipPath>
	<path class="st0" d="M354.2,55.2l-97.5,56.9l22,37.9c-7.5-0.4-12.6,0.8-17.3,3.5c-10.8,6.1-11.4,17.7-6.9,25.7
		c4.7,8,15.1,13,25.7,6.7c4.9-2.7,8.2-6.7,11.8-13.3l21.8,37.5l37.5-21.8c-6.7-3.5-10.6-6.9-13.3-11.8c-6.3-10.6-1.4-21,6.7-25.7
		c8-4.5,19.6-3.9,25.7,6.9c2.7,4.7,3.9,9.8,3.5,17.3l37.7-21.8L354.2,55.2z"/>
	<path class="st1" d="M211.9,263H175c1.8,2.9,3.5,7.1,3.5,12.6c0,12.8-9.8,23-23.2,23c-13.3,0-23.2-10.2-23.2-23
		c0-5.5,1.8-9.6,3.5-12.6H98.6v113h113.2v-43.4c6.3,3.9,11.2,5.7,16.7,5.7c12.4,0,18.8-9.6,18.8-18.8c0-9.2-6.5-18.8-18.8-18.8
		c-5.5,0-10.4,1.8-16.7,5.7V263z"/>
	<path class="st2" d="M211.9,145.3H98.6v113.2h43.6c-3.9,6.3-5.7,11.2-5.7,16.7c0,12.4,9.6,18.8,18.8,18.8c9.2,0,18.8-6.5,18.8-18.8
		c0-5.5-1.8-10.4-5.7-16.7h43.4v-43.6c-6.3,3.9-11.2,5.7-16.7,5.7c-12.4,0-18.8-9.6-18.8-18.8c0-9.2,6.5-18.8,18.8-18.8
		c5.5,0,10.4,1.8,16.7,5.7V145.3z"/>
	<path class="st3" d="M272.9,227.5c-9.2,0-18.8,6.5-18.8,18.8c0,5.5,1.8,10.4,5.7,16.7h-43.4v36.9c2.9-1.8,7.1-3.5,12.6-3.5
		c12.8,0,23,9.8,23,23.2s-10.2,23.2-23,23.2c-5.5,0-9.6-1.8-12.6-3.5v36.9h113.2V263H286c3.9-6.3,5.7-11.2,5.7-16.7
		C291.7,234,282.1,227.5,272.9,227.5"/>
</g>
</svg>
